<?xml version="1.0" encoding="UTF-8"?>
<svg xmlns="http://www.w3.org/2000/svg" width="208.47" height="208.47" viewBox="0 0 208.47 208.47">
  <style>
    .st0{fill:#68bd45;}
    .st1{fill:#ffffff;}
  </style>
  <path class="st0" d="M196.09 66.62c8.67 13.55 10.99 30.03 5.5 47.04-8.13 25.3-32.43 42.11-55.19 42.11-3.91 0-7.83-.43-11.73-1.33C93.26 146.67 63.45 111.33 69.17 69.2 73.58 36.27 105.09 9 139.12 9c8.67 0 16.74 1.63 24.19 4.96 21.25 9.4 30.76 30.25 32.78 52.66z"/>
  <path class="st1" d="M146.12 69.54c-1.67-11.92-15.62-11.77-20.55-10.9-4.93.87-11.53 4.25-12.2 12.66-.67 8.41 9.7 12.27 14.59 13.36 4.89 1.09 13.42 3.28 13.01 9.07-.41 5.79-3.59 6.99-12.2 7.43-8.61.44-13.75-5.43-13.75-5.43s-2.54 11.02 6.08 14.25c9.72 3.63 23.65.37 27.99-7.41 3.8-6.85-1.69-13.26-8.13-15.75-6.44-2.49-16.01-3.18-16.79-7.08-.77-3.9 4.44-5.38 8.26-5.65 3.82-.27 11.24.37 13.69-4.55zm-16.76-52.23l5.7 3.38 3.15-3.88-8.58-5.25-4.33 5.34 2.78 1.73 1.28-.32zm6.26 4.82l3.67 2.82c.48-.94 1.03-1.86 1.51-2.74l-4.18-3.22-1 3.14zm16.82 10.23c.51.17 5.07-7.26 5.07-7.26l-9.06-6.8s-4.65 6.41-5.81 9.71c-.31.88.49 1.17.89 1.28l8.91 3.07zm-44.65-8.43l-4.17 10.54 8.4 3.31s3.32-6.62 4.25-11.34c.25-1.26-.3-1.46-.67-1.55-.36-.09-7.81-.96-7.81-.96zm-30.84 67.12c-7.77 21.6 5.41 44.51 27.01 52.27 21.6 7.77 44.51-5.41 52.27-27.01 7.77-21.6-5.41-44.51-27.01-52.27-21.59-7.77-44.5 5.41-52.27 27.01z"/>
  <path class="st1" d="M142.58 100.33c0 3.1-2.51 5.61-5.61 5.61s-5.61-2.51-5.61-5.61 2.51-5.61 5.61-5.61 5.61 2.51 5.61 5.61z"/>
</svg>
