<?xml version="1.0" encoding="UTF-8" standalone="no"?>
<svg width="800" height="500" xmlns="http://www.w3.org/2000/svg">
  <!-- Background -->
  <rect x="0" y="0" width="800" height="500" fill="#f5f5f5" />
  
  <!-- Login Form Card -->
  <rect x="250" y="70" width="300" height="360" rx="10" ry="10" fill="white" stroke="#dee2e6" stroke-width="1" />
  
  <!-- Spring Logo -->
  <circle cx="400" cy="130" r="40" fill="#6db33f" />
  <path d="M380,130 C380,110 420,110 420,130 C420,150 380,150 380,130 Z" fill="#6db33f" stroke="white" stroke-width="2" />
  <path d="M390,110 C370,130 390,150 410,130 Z" fill="#6db33f" stroke="white" stroke-width="2" />
  
  <!-- Title -->
  <text x="400" y="190" font-family="Arial" font-size="18" font-weight="bold" text-anchor="middle" fill="#343a40">Docker Demo Login</text>
  
  <!-- Username Field -->
  <rect x="275" y="210" width="250" height="40" rx="4" ry="4" fill="white" stroke="#ced4da" stroke-width="1" />
  <text x="290" y="235" font-family="Arial" font-size="14" fill="#6c757d">Username</text>
  
  <!-- Password Field -->
  <rect x="275" y="270" width="250" height="40" rx="4" ry="4" fill="white" stroke="#ced4da" stroke-width="1" />
  <text x="290" y="295" font-family="Arial" font-size="14" fill="#6c757d">Password</text>
  
  <!-- Sign in Button -->
  <rect x="275" y="330" width="250" height="40" rx="4" ry="4" fill="#0d6efd" stroke="none" />
  <text x="400" y="355" font-family="Arial" font-size="14" font-weight="bold" text-anchor="middle" fill="white">Sign in</text>
  
  <!-- Default User Info -->
  <text x="400" y="390" font-family="Arial" font-size="12" text-anchor="middle" fill="#6c757d">Default users: user/password or admin/admin</text>
  
  <!-- Footer -->
  <text x="400" y="425" font-family="Arial" font-size="12" text-anchor="middle" fill="#6c757d">© 2025 Docker Demo</text>
</svg>
